<svg width="180" height="88" viewBox="0 0 180 88" fill="none" xmlns="http://www.w3.org/2000/svg">
<path d="M12.5463 87.1817V13.8265H0.555553V0.777779H37.2331V13.8265H25.2424V87.1817H12.5463Z" fill="#FFD336"/>
<path d="M57.945 87.1817C54.364 87.1817 51.269 85.3656 48.66 81.7335C46.051 78.1013 44.7465 72.5508 44.7465 65.0819C44.7465 57.8688 46.2812 52.0625 49.3506 47.663C52.4712 43.2635 57.1264 39.4523 63.3164 36.2295C65.2604 35.2063 66.8974 34.2855 68.2275 33.467C69.5576 32.6485 70.3761 31.8811 70.683 31.1649V21.9567C70.683 19.8593 70.4272 18.0688 69.9157 16.5852C69.4552 15.0505 68.2786 14.2832 66.3858 14.2832C64.6465 14.2832 63.4699 15.1017 62.856 16.7387C62.2421 18.3246 61.9352 20.3197 61.9352 22.7241V26.7143H46.4347V23.1845C46.4347 18.5804 47.3299 14.6157 49.1204 11.2905C50.962 7.91415 53.4432 5.33074 56.5637 3.54025C59.7354 1.6986 63.3164 0.777779 67.3067 0.777779C71.1434 0.777779 74.4686 1.67302 77.2822 3.46351C80.0959 5.20284 82.27 7.63279 83.8047 10.7534C85.3906 13.8228 86.1835 17.3526 86.1835 21.3428V71.3742C86.1835 75.1087 86.2858 78.0246 86.4905 80.122C86.6951 82.1683 86.9509 84.1123 87.2578 85.9539H72.0642C71.3992 85.1354 70.9899 83.9332 70.8365 82.3473C70.7342 80.7615 70.683 79.7128 70.683 79.2012H69.6087C68.3298 81.5544 66.6928 83.4728 64.6977 84.9563C62.7537 86.4399 60.5028 87.1817 57.945 87.1817ZM64.2372 71.9881C66.0277 71.9881 67.5369 71.3742 68.7646 70.1464C70.0435 68.9187 70.683 67.5886 70.683 66.1562V46.205C66.9486 47.7909 64.2117 50.1953 62.4723 53.4182C60.7842 56.5899 59.9401 60.1709 59.9401 64.1611C59.9401 65.9004 60.2726 67.6398 60.9376 69.3791C61.6027 71.1184 62.7025 71.9881 64.2372 71.9881Z" fill="#FFD336"/>
<path d="M113.937 87.1049C107.133 87.1049 102.119 84.9819 98.8964 80.7359C95.7247 76.4899 94.1388 70.5813 94.1388 63.0101V24.8726C94.1388 17.2503 95.7247 11.3417 98.8964 7.1468C102.119 2.90079 107.133 0.777779 113.937 0.777779C120.74 0.777779 125.754 2.90079 128.977 7.1468C132.251 11.3928 133.888 17.3014 133.888 24.8726V31.4719H118.387V22.8775C118.387 20.5243 118.08 18.5548 117.466 16.9689C116.852 15.3831 115.676 14.5901 113.937 14.5901C112.197 14.5901 111.046 15.4086 110.483 17.0456C109.921 18.6315 109.639 20.5755 109.639 22.8775V65.0052C109.639 67.3072 109.921 69.2768 110.483 70.9138C111.046 72.4997 112.197 73.2926 113.937 73.2926C115.676 73.2926 116.852 72.4997 117.466 70.9138C118.08 69.3279 118.387 67.3584 118.387 65.0052V56.4108H133.888V63.0101C133.888 70.5813 132.251 76.4899 128.977 80.7359C125.754 84.9819 120.74 87.1049 113.937 87.1049Z" fill="#FFD336"/>
<path d="M159.875 87.0282C153.685 87.0282 148.825 84.9564 145.295 80.8126C141.765 76.6178 140 71.3231 140 64.9284V22.8775C140 16.4829 141.765 11.2138 145.295 7.07007C148.825 2.87521 153.685 0.777779 159.875 0.777779C166.013 0.777779 170.848 2.87521 174.378 7.07007C177.958 11.2138 179.749 16.4829 179.749 22.8775V64.9284C179.749 71.3231 177.958 76.6178 174.378 80.8126C170.848 84.9564 166.013 87.0282 159.875 87.0282ZM159.875 73.5228C161.87 73.5228 163.251 72.7299 164.018 71.144C164.786 69.507 165.169 67.4351 165.169 64.9284V22.8775C165.169 20.3197 164.786 18.2478 164.018 16.662C163.251 15.0761 161.87 14.2832 159.875 14.2832C157.879 14.2832 156.498 15.0761 155.731 16.662C154.963 18.2478 154.58 20.3197 154.58 22.8775V64.9284C154.58 67.4863 154.963 69.5581 155.731 71.144C156.498 72.7299 157.879 73.5228 159.875 73.5228Z" fill="#FFD336"/>
</svg>
